<svg width="193" height="40" viewBox="0 0 193 40" fill="none" xmlns="http://www.w3.org/2000/svg">
<path d="M25.912 13.512L17.896 39H8.92L0.712 13.512H8.968L13.48 33.24L18.184 13.512H25.912ZM50.4344 25.752C50.4344 26.808 50.3864 27.72 50.2904 28.488H34.4984C34.7544 30.632 35.3624 32.136 36.3224 33C37.2824 33.864 38.6104 34.296 40.3064 34.296C41.3304 34.296 42.3224 34.12 43.2824 33.768C44.2424 33.384 45.2824 32.808 46.4024 32.04L49.5224 36.264C46.5464 38.632 43.2344 39.816 39.5864 39.816C35.4584 39.816 32.2904 38.6 30.0824 36.168C27.8744 33.736 26.7704 30.472 26.7704 26.376C26.7704 23.784 27.2344 21.464 28.1624 19.416C29.0904 17.336 30.4504 15.704 32.2424 14.52C34.0344 13.304 36.1784 12.696 38.6744 12.696C42.3544 12.696 45.2344 13.848 47.3144 16.152C49.3944 18.456 50.4344 21.656 50.4344 25.752ZM42.9944 23.592C42.9304 19.688 41.5544 17.736 38.8664 17.736C37.5544 17.736 36.5304 18.216 35.7944 19.176C35.0904 20.136 34.6584 21.72 34.4984 23.928H42.9944V23.592ZM69.6228 12.696C71.8308 12.696 73.5588 13.368 74.8068 14.712C76.0548 16.056 76.6788 17.944 76.6788 20.376V39H69.0948V21.672C69.0948 20.392 68.8868 19.512 68.4708 19.032C68.0868 18.52 67.4948 18.264 66.6948 18.264C65.1588 18.264 63.6868 19.368 62.2788 21.576V39H54.6948V13.512H61.3188L61.8468 16.536C62.9348 15.256 64.1028 14.296 65.3508 13.656C66.6308 13.016 68.0548 12.696 69.6228 12.696ZM104.622 25.752C104.622 26.808 104.574 27.72 104.478 28.488H88.6859C88.9419 30.632 89.5499 32.136 90.5099 33C91.4699 33.864 92.7979 34.296 94.4939 34.296C95.5179 34.296 96.5099 34.12 97.4699 33.768C98.4299 33.384 99.4699 32.808 100.59 32.04L103.71 36.264C100.734 38.632 97.4219 39.816 93.7739 39.816C89.6459 39.816 86.4779 38.6 84.2699 36.168C82.0619 33.736 80.9579 30.472 80.9579 26.376C80.9579 23.784 81.4219 21.464 82.3499 19.416C83.2779 17.336 84.6379 15.704 86.4299 14.52C88.2219 13.304 90.3659 12.696 92.8619 12.696C96.5419 12.696 99.4219 13.848 101.502 16.152C103.582 18.456 104.622 21.656 104.622 25.752ZM97.1819 23.592C97.1179 19.688 95.7419 17.736 93.0539 17.736C91.7419 17.736 90.7179 18.216 89.9819 19.176C89.2779 20.136 88.8459 21.72 88.6859 23.928H97.1819V23.592ZM126.412 13.512V18.84L114.892 33.24H126.652L125.98 39H106.108V33.624L117.676 19.224H107.116V13.512H126.412ZM138.076 13.512V39H130.492V13.512H138.076ZM134.236 0.0719976C135.548 0.0719976 136.62 0.487998 137.452 1.32C138.316 2.12 138.748 3.144 138.748 4.392C138.748 5.64 138.316 6.68 137.452 7.512C136.62 8.312 135.548 8.712 134.236 8.712C132.924 8.712 131.852 8.312 131.02 7.512C130.188 6.68 129.772 5.64 129.772 4.392C129.772 3.144 130.188 2.12 131.02 1.32C131.852 0.487998 132.924 0.0719976 134.236 0.0719976ZM164.295 31.608C164.295 32.568 164.423 33.272 164.679 33.72C164.967 34.168 165.415 34.504 166.023 34.728L164.439 39.672C162.871 39.544 161.591 39.208 160.599 38.664C159.607 38.088 158.839 37.192 158.295 35.976C156.631 38.536 154.071 39.816 150.615 39.816C148.087 39.816 146.071 39.08 144.567 37.608C143.063 36.136 142.311 34.216 142.311 31.848C142.311 29.064 143.335 26.936 145.383 25.464C147.431 23.992 150.391 23.256 154.263 23.256H156.855V22.152C156.855 20.648 156.535 19.624 155.895 19.08C155.255 18.504 154.135 18.216 152.535 18.216C151.703 18.216 150.695 18.344 149.511 18.6C148.327 18.824 147.111 19.144 145.863 19.56L144.135 14.568C145.735 13.96 147.367 13.496 149.031 13.176C150.727 12.856 152.295 12.696 153.734 12.696C157.383 12.696 160.055 13.448 161.751 14.952C163.447 16.456 164.295 18.712 164.295 21.72V31.608ZM152.823 34.392C154.551 34.392 155.895 33.576 156.855 31.944V27.432H154.983C153.255 27.432 151.959 27.736 151.095 28.344C150.263 28.952 149.847 29.896 149.847 31.176C149.847 32.2 150.103 33 150.615 33.576C151.159 34.12 151.895 34.392 152.823 34.392ZM185.263 12.696C187.471 12.696 189.199 13.368 190.447 14.712C191.695 16.056 192.319 17.944 192.319 20.376V39H184.735V21.672C184.735 20.392 184.527 19.512 184.111 19.032C183.727 18.52 183.135 18.264 182.335 18.264C180.799 18.264 179.327 19.368 177.919 21.576V39H170.335V13.512H176.959L177.487 16.536C178.575 15.256 179.743 14.296 180.991 13.656C182.271 13.016 183.695 12.696 185.263 12.696Z" fill="#141414"/>
</svg>
